# xmcd CD database file
#
# Track frame offsets:
#	183
#	9695
#	16635
#	25763
#	36408
#	46773
#	59165
#	70950
#	82768
#	92498
#	104128
#	115845
#	127435
#	140495
#	161745
#	175623
#	191445
#	207590
#	226293
#	241213
#	257548
#	275635
#	297833
#
# Disc length: 4152 seconds
#
# Revision: 0
# Processed by: cddbd v1.5.2PL0 Copyright (c) Steve Scherf et al.
# Submitted via: CDex 1.70beta2
#
DISCID=49103617
DTITLE=Various Artist - Wembley Country Music Festival
DYEAR=1988
DGENRE=Country
TTITLE0=George Hamilton IV - I Love Music
TTITLE1=Wanda Jackson - Silver Threads and Golden Needles
TTITLE2=Hank Thompson - They Call Me Mr. Honky-Tonk
TTITLE3=Don Gibson - Sea Of Heartbreak
TTITLE4=Roxton Road Show - Cotton-Eyed Joe
TTITLE5=Joe Sun - My Sweet Love Aint Around
TTITLE6=Canadian Pacific and GH IV - Early Morning Rain
TTITLE7=Jerry Lee Lewis - Keep My Motor Running
TTITLE8=Marvin Rainwater - I Dig You Baby
TTITLE9=Skeeter Davis - Rocky Top
TTITLE10=Don Gibson - Funny Familiar Forgotten Feelings
TTITLE11=Jerry Lee Lewis - High School Confidential
TTITLE12=Hoyt Axton - Joy To The World
TTITLE13=Jerry Lee Lewis - What'd I Say
TTITLE14=Jim and Jessie - Paradise
TTITLE15=Carey Duncan - I'm Your Woman
TTITLE16=Melba Montgomery - No Change
TTITLE17=Tom Gribbin and the Saltwater Cowboys - Honky-Tonk Blues
TTITLE18=Hoyt Axton - Della and The Dealer
TTITLE19=Vernon Oxford - Shadows Of My Mind
TTITLE20=Rose Maria - I Saw Heaven
TTITLE21=Raymond Froggatt - Me And Bobby McGee
TTITLE22=Mac Wiseman - Wabash Cannonball
EXTD=YEAR: 1988
EXTT0=
EXTT1=
EXTT2=
EXTT3=
EXTT4=
EXTT5=
EXTT6=
EXTT7=
EXTT8=
EXTT9=
EXTT10=
EXTT11=
EXTT12=
EXTT13=
EXTT14=
EXTT15=
EXTT16=
EXTT17=
EXTT18=
EXTT19=
EXTT20=
EXTT21=
EXTT22=
PLAYORDER=
